<?xml version="1.0" encoding="UTF-8"?>
<svg width="228px" height="143px" viewBox="0 0 228 143" version="1.1" xmlns="http://www.w3.org/2000/svg" xmlns:xlink="http://www.w3.org/1999/xlink">
    <!-- Generator: Sketch 64 (93537) - https://sketch.com -->
    <title>LOGO</title>
    <desc>Created with Sketch.</desc>
    <defs>
        <polygon id="path-1" points="0.463367686 0.0106264368 14.1134987 0.0106264368 14.1134987 16.3103448 0.463367686 16.3103448"></polygon>
        <polygon id="path-3" points="0.130975546 0.33876092 12.463386 0.33876092 12.463386 16.8045977 0.130975546 16.8045977"></polygon>
    </defs>
    <g id="RVD-BMW-Website_Desktop" stroke="none" stroke-width="1" fill="none" fill-rule="evenodd">
        <g id="RVD-BMW-Website_Desktop-LOGIN" transform="translate(-221.000000, -121.000000)">
            <g id="LOGO" transform="translate(221.000000, 121.000000)">
                <g id="LOGO---RVD">
                    <g id="Group-53">
                        <polygon id="Fill-1" fill="#2A2A2A" points="59.9124088 125.793103 59.9124088 142.344828 69.8978102 142.344828 69.8978102 140.080837 62.2855856 140.080837 62.2855856 136.697781 68.7563691 136.697781 68.7563691 134.482974 62.2855856 134.482974 62.2855856 128.056587 69.5847236 128.056587 69.5847236 125.793103"></polygon>
                        <g id="Group-52">
                            <g id="Group-4" transform="translate(81.144105, 126.034483)">
                                <mask id="mask-2" fill="white">
                                    <use xlink:href="#path-1"></use>
                                </mask>
                                <g id="Clip-3"></g>
                                <path d="M0.463367686,0.0106264368 L3.02961223,0.0106264368 L6.50486987,8.67043103 C6.9588786,9.73851149 7.4357869,11.541546 7.4357869,11.541546 C7.4357869,11.541546 7.86739389,9.76174138 8.34430218,8.67043103 L11.7742585,0.0106264368 L14.1134987,0.0106264368 L7.52688734,16.310592 L7.2316821,16.310592 L0.463367686,0.0106264368 Z" id="Fill-2" fill="#2A2A2A" mask="url(#mask-2)"></path>
                            </g>
                            <polygon id="Fill-5" fill="#2A2A2A" points="108.000762 126.045109 117.81223 126.045109 117.81223 128.251454 110.408203 128.251454 110.408203 134.515615 116.971915 134.515615 116.971915 136.674511 110.408203 136.674511 110.408203 139.972167 118.130334 139.972167 118.130334 142.179006 108.000762 142.179006"></polygon>
                            <g id="Group-9" transform="translate(131.423581, 125.540230)">
                                <mask id="mask-4" fill="white">
                                    <use xlink:href="#path-3"></use>
                                </mask>
                                <g id="Clip-8"></g>
                                <path d="M3.6515345,7.21925517 C3.03822445,6.53076092 2.19791004,5.41622069 2.19791004,5.41622069 C2.19791004,5.41622069 2.35671354,6.74477241 2.35671354,7.74118621 L2.35671354,16.6387264 L0.130975546,16.6387264 L0.130975546,0.33876092 L0.448582533,0.33876092 L8.96622445,9.90057701 C9.55613712,10.5648529 10.3969493,11.7031172 10.3969493,11.7031172 C10.3969493,11.7031172 10.237648,10.279669 10.237648,9.37815172 L10.237648,0.504829885 L12.463386,0.504829885 L12.463386,16.8047954 L12.1681808,16.8047954 L3.6515345,7.21925517 Z" id="Fill-7" fill="#2A2A2A" mask="url(#mask-4)"></path>
                            </g>
                            <polygon id="Fill-10" fill="#2A2A2A" points="161.286354 128.251405 156.698476 128.251405 156.698476 126.04506 168.259271 126.04506 168.259271 128.251405 163.670895 128.251405 163.670895 142.178956 161.286354 142.178956"></polygon>
                            <path d="M49.7861397,85.3291011 C49.7861397,77.4719632 46.3706201,77.4719632 42.1765153,77.4719632 L40.8358952,77.4719632 L40.8358952,93.2322046 L42.1765153,93.2322046 C46.3706201,93.2322046 49.7861397,93.1867333 49.7861397,85.3291011 M61.8492314,107.728147 L61.8492314,108.496216 L57.871179,108.496216 C50.1754323,108.450745 51.2995022,108.450745 48.2727773,98.6511931 C46.8460349,93.9997793 42.8684803,93.9997793 42.8684803,93.9997793 L40.8358952,93.9997793 L40.8358952,103.031756 C40.8358952,106.102549 42.2198253,107.728147 44.0353624,107.728147 L44.0353624,108.496216 L31.4535459,108.496216 L31.4535459,107.728147 C33.3128908,107.728147 34.5668908,106.102549 34.5668908,103.031756 L34.5668908,81.4907333 C34.5668908,78.6912851 33.3562009,77.4719632 31.4535459,77.4719632 L31.4535459,76.7038943 L42.1765153,76.7038943 C50.7807773,76.7038943 56.8337293,77.7882851 56.8337293,85.3291011 C56.8337293,90.8385379 53.5476419,92.8709057 48.4027074,93.5030552 C51.2128821,93.1867333 54.6717118,95.1741241 56.7904192,103.302607 C57.6551266,106.735193 60.7251616,107.638193 61.8492314,107.728147" id="Fill-12" fill="#2A2A2A"></path>
                            <path d="M75.771021,96.8899724 C75.771021,91.2001333 73.9982961,87.9939149 71.6202262,87.9939149 C69.069414,87.9939149 67.2966891,92.5548805 67.2966891,96.8899724 L75.771021,96.8899724 Z M81.0458856,97.6580414 L67.2966891,97.6580414 C67.6421738,102.083582 69.8041913,104.3868 72.700986,105.063926 C75.0357459,105.606122 78.4950734,104.703122 79.5758332,102.580306 L80.3111083,102.986582 C79.6191432,105.335271 77.0678332,108.902789 71.2742437,108.902789 C65.6100865,108.902789 61.7186541,103.438329 61.7186541,98.1547655 C61.7186541,91.7873057 65.8694489,87.225846 71.8362786,87.225846 C78.1057808,87.225846 81.0458856,90.6129609 81.0458856,97.6580414 L81.0458856,97.6580414 Z" id="Fill-14" fill="#2A2A2A"></path>
                            <path d="M115.873234,87.632369 L115.873234,88.4004379 C115.095147,88.4004379 112.933129,88.490392 110.511749,95.4000471 L105.539557,108.902541 L104.84809,108.902541 L98.5352777,94.5870011 L93.4331555,108.902541 L92.6983782,108.902541 C85.0454437,91.5611851 84.4400987,90.3418632 84.4400987,90.3418632 C83.4887712,88.4004379 82.4080114,88.4004379 81.7160463,88.4004379 L81.7160463,87.632369 L91.919793,87.632369 L91.919793,88.4004379 C89.3689808,88.4004379 90.8390332,91.3353115 90.8390332,91.3353115 L95.3358105,101.225311 L98.1031729,93.6385299 C96.8058629,90.6581851 96.6331205,90.3418632 96.6331205,90.3418632 C95.638483,88.4004379 94.6010332,88.4004379 93.8657581,88.4004379 L93.8657581,87.632369 L104.112815,87.632369 L104.112815,88.4004379 C101.388762,88.4004379 102.988745,91.3353115 102.988745,91.3353115 L107.485522,101.225311 L109.690352,95.2196448 C109.690352,95.2196448 112.198352,88.4004379 107.398902,88.4004379 L107.398902,87.632369 L115.873234,87.632369 Z" id="Fill-16" fill="#2A2A2A"></path>
                            <path d="M127.397887,97.7481437 C123.160472,98.741592 121.73373,100.864408 121.73373,103.167626 C121.73373,103.167626 121.73373,106.147971 124.544403,106.147971 C126.014455,106.147971 127.008595,104.928649 127.397887,103.844753 L127.397887,97.7481437 Z M136.088272,105.379902 L136.823547,105.696224 C136.477066,107.14142 134.488289,108.902443 131.764237,108.902443 C131.764237,108.902443 127.916612,108.902443 127.4407,105.244971 C126.792045,107.231374 124.241232,108.902443 121.171695,108.902443 C121.171695,108.902443 116.199503,108.902443 116.199503,104.2965 C116.199503,99.3737414 119.831075,98.9224885 127.397887,96.9350977 L127.397887,94.1351552 C127.397887,89.4387644 124.889887,87.090569 121.906472,88.7166609 C120.522542,89.4387644 120.350298,90.2063391 120.652472,90.2518103 C121.301128,90.3422586 121.86366,90.6580862 122.252455,91.2452586 C123.03104,92.4196034 122.72787,93.9997299 121.6038,94.8132701 C120.480228,95.5803506 118.966368,95.3095 118.18828,94.1351552 C117.669555,93.2771322 117.626245,92.1937299 118.05835,91.4256609 C118.490455,90.6580862 119.052988,89.4387644 121.431058,88.1289943 C123.376525,87.045592 125.624665,87.2259943 125.624665,87.2259943 C131.288822,87.2259943 132.845494,90.9289368 132.845494,96.2579713 L132.845494,102.98673 C132.845494,102.98673 132.802184,106.147971 134.920892,106.147971 C134.920892,106.147971 135.828909,106.147971 136.088272,105.379902 L136.088272,105.379902 Z" id="Fill-18" fill="#2A2A2A"></path>
                            <path d="M154.530335,88.0387931 C155.870955,89.2581149 156.000388,91.425908 154.833008,92.7806552 C153.666126,94.1808736 151.677348,94.3612759 150.293418,93.141954 C149.645261,92.5098046 149.298781,91.7417356 149.298781,90.9291839 C149.298781,90.4324598 147.526554,90.8842069 145.926571,93.5932069 L145.926571,102.986483 C145.926571,105.515575 146.142624,107.277092 147.698798,107.728345 L147.698798,108.496414 L138.749052,108.496414 L138.749052,107.728345 C140.435654,107.186644 140.478466,105.335172 140.478466,102.986483 L140.478466,92.9610575 C140.478466,91.425908 140.089174,90.7482874 138.316947,89.7998161 L138.316947,89.0327356 L145.926571,87.2257471 L145.926571,92.3294023 C148.218021,88.5809885 149.990746,87.9038621 151.028693,87.4521149 C151.936213,87.0453448 153.579506,87.2257471 154.530335,88.0387931" id="Fill-20" fill="#2A2A2A"></path>
                            <path d="M172.841125,95.5356207 C172.841125,89.8452874 170.160383,87.9938161 167.69619,87.9938161 C164.539535,87.9938161 163.156103,90.477931 163.156103,97.3416207 C163.156103,104.612575 164.582845,107.322069 168.084985,107.322069 C171.025588,107.322069 172.841125,105.063828 172.841125,101.90308 L172.841125,95.5356207 Z M180.407439,107.09669 L180.407439,107.86377 L174.052313,108.857218 C172.841125,109.038115 172.841125,108.044667 172.841125,108.044667 L172.841125,105.245218 C171.457693,107.909241 168.258225,108.90269 166.226138,108.90269 C161.340068,108.90269 157.016531,104.883425 157.016531,97.7483908 C157.016531,90.477931 161.599928,87.2262414 167.65288,87.2262414 C169.641658,87.2262414 171.457693,87.7224713 172.841125,88.5809885 L172.841125,79.9552874 C172.841125,78.3751609 172.40902,77.9234138 170.636295,77.2462874 L170.636295,76.4782184 L178.203107,74.8071494 L178.203107,104.115356 C178.203107,106.328621 178.635212,106.870816 180.407439,107.09669 L180.407439,107.09669 Z" id="Fill-22" fill="#2A2A2A"></path>
                            <path d="M196.643976,106.464194 C196.643976,106.464194 195.000684,108.902838 190.590527,108.902838 C185.358972,108.902838 182.76485,106.824999 182.76485,106.824999 L182.76485,101.13516 L183.500125,101.13516 C184.148282,102.896183 185.532212,108.135263 190.590527,108.135263 C193.660562,108.135263 194.179286,104.070528 190.893199,101.81278 L186.526352,99.0578149 C182.332247,96.3932977 181.208177,92.7358264 183.586247,89.4841368 C183.586247,89.4841368 185.229042,87.2258954 189.553077,87.2258954 C194.525269,87.2258954 196.686789,88.5806425 196.686789,88.5806425 L196.686789,93.6388264 L195.952011,93.6388264 C195.389479,92.0582057 194.006046,87.9939644 189.553077,87.9939644 C186.742404,87.9939644 185.532212,91.4710333 189.293217,93.954654 L193.660562,96.7995736 C197.508186,99.2836885 198.805496,103.212505 196.643976,106.464194" id="Fill-24" fill="#2A2A2A"></path>
                            <polygon id="Fill-26" fill="#2A2A2A" points="110.563771 14.1315793 107.208487 7.74088966 113.906112 7.74088966 117.705946 0.476855172 95.1429066 0.476855172 106.44633 22.0045333"></polygon>
                            <polygon id="Fill-28" fill="#2A2A2A" points="124.35797 0.476657471 109.777918 28.3510368 113.871962 36.1478759 132.600817 0.476657471"></polygon>
                            <polygon id="Fill-30" fill="#2A2A2A" points="47.8879651 133.553008 2.48908297 133.553008 2.48908297 18.0648931 97.0797118 18.0648931 95.7819039 15.5936287 0 15.5936287 0 136.024272 47.8879651 136.024272"></polygon>
                            <polygon id="Fill-32" fill="#2A2A2A" points="131.961372 15.5938264 130.66456 18.0650908 225.254193 18.0650908 225.254193 133.553206 179.855809 133.553206 179.855809 136.02447 227.743276 136.02447 227.743276 15.5938264"></polygon>
                            <path d="M45.8252122,60.7491644 L45.8252122,69.7223253 L20.7631336,69.7223253 L20.7631336,69.158877 C22.5965921,69.158877 23.2955266,66.7316011 23.2955266,63.7833828 L23.2955266,45.1866241 C23.2955266,42.498877 22.6842079,39.7676356 20.7631336,39.7676356 L20.7631336,39.2041874 L45.2577013,39.2041874 L45.2577013,47.7873828 L44.6896926,47.7873828 C44.1659895,39.8111299 32.2900769,39.7676356 32.2900769,39.7676356 L30.7179721,39.7676356 L30.7179721,54.0297966 L33.2941729,54.0297966 C33.2941729,54.0297966 38.9264699,54.1167851 39.4068629,49.2177506 L39.9743738,49.2177506 L39.9743738,59.4052908 L39.4068629,59.4052908 C38.9264699,54.5502448 33.2941729,54.5932448 33.2941729,54.5932448 L30.7179721,54.5932448 L30.7179721,69.158877 L32.2900769,69.158877 C32.2900769,69.158877 44.3407231,69.4193483 45.2577013,60.7491644 L45.8252122,60.7491644 Z" id="Fill-34" fill="#2A2A2A"></path>
                            <path d="M73.0264585,69.7224736 L61.0191223,69.7224736 L61.0191223,69.2020253 C63.1149301,69.2020253 60.7139607,65.9943241 60.6701528,65.9513241 L57.9630262,62.049692 L56.3038035,64.3469793 C56.3038035,64.3469793 52.9853581,69.2020253 58.9233144,69.2020253 L58.9233144,69.7224736 L48.0953057,69.7224736 L48.0953057,69.2020253 C49.8854541,69.2020253 52.6796987,68.1621172 55.8234105,63.9135195 L57.613559,61.5292437 L50.8895502,51.9491402 C49.2741354,50.1283126 48.1824236,50.3452897 47.4839869,50.2583011 L47.4839869,49.6948529 L60.1897598,49.6948529 L60.1897598,50.2583011 C59.054738,50.2583011 58.1377598,51.2557034 59.665559,53.2930138 L62.0670262,56.6307034 L63.5082052,54.6798874 C63.5082052,54.6798874 66.4771834,50.2583011 61.6742489,50.2583011 L61.6742489,49.6948529 L72.0656725,49.6948529 L72.0656725,50.2583011 C70.0574803,50.3017954 67.0008865,50.9087379 63.9447904,54.9403586 L62.4164934,57.1511517 L69.3585459,67.1647149 C70.755917,69.072531 72.3280218,69.1590253 73.0264585,69.2020253 L73.0264585,69.7224736 Z" id="Fill-36" fill="#2A2A2A"></path>
                            <path d="M87.0421362,58.7550517 C87.0421362,53.2930632 85.8633066,49.8683851 83.679883,49.8683851 C81.3660314,49.8683851 79.9686603,54.5934425 79.9686603,58.7550517 L87.0421362,58.7550517 Z M79.9686603,59.3185 C80.1433939,64.7374885 82.2825118,66.6878103 85.2081799,67.3382471 C87.4787214,67.8582011 90.7095511,66.7747989 91.6703371,63.913569 L92.237848,64.1300517 C91.6265293,66.8612931 88.744669,70.1124885 83.069062,70.1124885 C77.3491493,70.1124885 73.0704157,65.2574425 73.0704157,59.795454 C73.0704157,53.032592 78.0037782,49.3049368 83.679883,49.3049368 C89.1812541,49.3049368 92.8491668,51.8622011 92.8491668,59.3185 L79.9686603,59.3185 Z" id="Fill-38" fill="#2A2A2A"></path>
                            <path d="M114.112407,54.6800851 C113.588206,56.2839356 111.841866,57.1943494 110.226451,56.6743954 C108.611036,56.1539471 107.737866,54.4636023 108.261569,52.9027517 C108.52342,52.0358322 109.047621,51.4723839 109.746058,51.1689126 C110.182643,50.9519356 109.440398,49.8685333 107.257472,49.8685333 C105.205472,49.8685333 102.542154,52.3393034 102.542154,58.9716828 C102.542154,63.653246 104.812197,65.9075333 108.174451,66.2544989 C110.357376,66.4709816 112.889769,65.5175678 113.675822,64.0437057 L114.156215,64.3036828 C113.850555,66.7749471 111.012005,70.1126368 105.55494,70.1126368 C99.8350271,70.1126368 95.5124856,65.2140966 95.5124856,59.6221195 C95.5124856,54.160131 99.2675162,49.3050851 107.126547,49.3050851 C110.401184,49.3050851 112.409376,50.6919586 113.326852,51.6023724 C114.068599,52.2958092 114.418066,53.5966828 114.112407,54.6800851" id="Fill-40" fill="#2A2A2A"></path>
                            <path d="M139.654182,68.942246 L132.231736,70.0691425 C131.052907,70.2426253 131.009099,69.2457172 131.009099,69.2457172 L131.009099,65.5610621 C130.310164,67.9448437 127.428802,70.1126368 124.241282,70.1126368 C120.791911,70.1126368 117.953859,68.682269 117.953859,63.4802575 L117.953859,54.0301425 C117.953859,51.4288897 118.041474,51.0389241 115.509579,50.6919586 L115.509579,50.1715103 L124.416514,49.3050851 L124.416514,63.350269 C124.416514,65.7775448 125.289684,66.9479356 127.691151,66.9479356 C128.913291,66.9479356 130.310164,66.1245103 131.009099,64.347177 L131.009099,54.160131 C131.009099,51.5158782 131.183334,50.9519356 128.957099,50.6919586 L128.957099,50.1715103 L137.427448,49.3050851 L137.427448,65.8210391 C137.427448,67.9018437 137.820225,68.2053149 139.654182,68.4217977 L139.654182,68.942246 Z" id="Fill-42" fill="#2A2A2A"></path>
                            <path d="M155.197808,65.8642862 C154.499371,68.0320793 151.879362,70.1128839 148.822769,70.1128839 C145.373895,70.1128839 142.361109,68.7255161 142.361109,63.4800103 L142.361109,50.2582517 L139.915834,50.2582517 L139.828716,49.6948034 L142.361109,49.6948034 L142.361109,43.8863437 L148.778961,42.9754356 L148.778961,49.6948034 L154.193214,49.6948034 L154.106096,50.2582517 L148.778961,50.2582517 L148.778961,63.3500218 C148.778961,65.777792 149.739747,66.991677 152.097406,66.991677 C153.363852,66.991677 154.28083,66.2112517 154.717415,65.6043092 L155.197808,65.8642862 Z" id="Fill-44" fill="#2A2A2A"></path>
                            <path d="M160.742838,39.9413161 C162.707222,39.9413161 164.322637,41.5016724 164.322637,43.4959828 C164.322637,45.4467989 162.707222,47.0071552 160.742838,47.0071552 C158.734148,47.0071552 157.162541,45.4467989 157.162541,43.4959828 C157.162541,41.5016724 158.734148,39.9413161 160.742838,39.9413161 L160.742838,39.9413161 Z M166.200401,69.722523 L156.245562,69.722523 L156.245562,69.2020747 C157.904785,68.6821207 157.991903,66.8612931 157.991903,64.6505 L157.991903,54.5499483 C157.991903,53.032592 157.51151,52.4261437 155.721362,51.6457184 L155.721362,51.0822701 L164.410252,49.3049368 L164.410252,64.6505 C164.410252,67.0347759 164.628794,68.7686149 166.200401,69.2020747 L166.200401,69.722523 Z" id="Fill-46" fill="#2A2A2A"></path>
                            <path d="M189.472281,49.6948529 L189.472281,50.2583011 C187.551207,50.2583011 186.02291,51.0822207 183.490019,57.1511517 L178.425731,70.1129333 L176.853626,70.1129333 C173.011478,61.7897149 168.514203,52.7295655 168.514203,52.7295655 C167.379181,50.4752782 166.068928,50.3017954 165.239565,50.2583011 L165.239565,49.6948529 L177.246403,49.6948529 L177.246403,50.2583011 C174.539775,50.2583011 176.329923,53.6829793 176.329923,53.6829793 L180.695775,62.6131402 C180.695775,62.6131402 182.529731,58.0615655 182.879198,57.0211632 C183.271976,55.9807609 184.756465,50.2583011 180.128264,50.2583011 L180.128264,49.6948529 L189.472281,49.6948529 Z" id="Fill-48" fill="#2A2A2A"></path>
                            <path d="M202.570134,58.7550517 C202.570134,53.2930632 201.391305,49.8683851 199.208379,49.8683851 C196.894528,49.8683851 195.497156,54.5934425 195.497156,58.7550517 L202.570134,58.7550517 Z M195.497156,59.3185 C195.67189,64.7374885 197.811008,66.6878103 200.736178,67.3382471 C203.00672,67.8582011 206.238047,66.7747989 207.198335,63.913569 L207.766344,64.1300517 C207.155025,66.8612931 204.273165,70.1124885 198.59706,70.1124885 C192.877148,70.1124885 188.598414,65.2574425 188.598414,59.795454 C188.598414,53.032592 193.532274,49.3049368 199.208379,49.3049368 C204.70975,49.3049368 208.377165,51.8622011 208.377165,59.3185 L195.497156,59.3185 Z" id="Fill-50" fill="#2A2A2A"></path>
                        </g>
                    </g>
                </g>
            </g>
        </g>
    </g>
</svg>