<?xml version="1.0" encoding="UTF-8"?>
<svg width="65px" height="25px" viewBox="0 0 65 25" version="1.1" xmlns="http://www.w3.org/2000/svg" xmlns:xlink="http://www.w3.org/1999/xlink">
    <!-- Generator: Sketch 63.1 (92452) - https://sketch.com -->
    <title>LOGO - Ford Colour</title>
    <desc>Created with Sketch.</desc>
    <defs>
        <polygon id="path-1" points="0.000122641509 0.0100490196 64.871717 0.0100490196 64.871717 24.754902 0.000122641509 24.754902"></polygon>
    </defs>
    <g id="Symbols" stroke="none" stroke-width="1" fill="none" fill-rule="evenodd">
        <g id="FOOTER-Desktop" transform="translate(-688.000000, -144.000000)">
            <g id="FOOTER">
                <g id="LOGO---Ford-Colour" transform="translate(688.000000, 144.000000)">
                    <g id="Group-10">
                        <path d="M29.057183,9.97840686 C29.3142396,9.92718137 29.595334,9.71541667 29.7613906,9.47105392 C29.9132208,9.2482598 29.9841075,8.92938725 29.8337491,8.79997549 C29.6988434,8.68502451 29.4807868,8.71762255 29.3189,8.8607598 C28.9963528,9.14580882 28.8982396,9.55022059 28.9396925,9.85071078 C28.9612774,9.96590686 29.0056736,9.98772059 29.057183,9.97840686" id="Fill-1" fill="#123574"></path>
                        <path d="M52.6557396,8.92622549 C52.3942679,9.37916667 47.3532113,17.0465686 47.0353245,17.8404412 C46.9342679,18.0911765 46.9217585,18.282598 47.0245321,18.4210784 C47.2891925,18.777451 47.8751736,18.5705882 48.2443245,18.3137255 C49.3363245,17.5602941 50.0917962,16.6512255 50.9314,15.8544118 C50.9780038,15.8183824 51.0606642,15.8041667 51.1180604,15.8512255 C51.2411925,15.9664216 51.4222113,16.1156863 51.5468151,16.2463235 C51.6044566,16.3088235 51.5823811,16.3710784 51.5512302,16.4098039 C50.7334566,17.4107843 49.8268906,18.3541667 48.9593245,19.0218137 C47.6102679,20.0664216 46.2658717,20.3308824 45.5989472,19.6632353 C45.3514566,19.4125 45.2158151,19.057598 45.1988906,18.7571078 C45.1907962,18.5936275 45.1069094,18.5860294 45.0289094,18.6607843 C44.2344377,19.4485294 42.8527585,20.3183824 41.593966,19.6990196 C40.5424377,19.1791667 40.2996075,17.9276961 40.4975509,16.8705882 C40.5004943,16.8473039 40.4771925,16.6995098 40.3494,16.7882353 C40.1298717,16.9453431 39.8448528,17.1181373 39.487966,17.2504902 C39.0501358,17.4139706 38.8445887,17.4745098 38.4396264,17.4698529 C37.9287019,17.4669118 37.4690415,17.2504902 37.1452679,16.7443627 C36.9642491,16.4720588 36.889683,16.0566176 36.8725132,15.7531863 C36.8707962,15.7188725 36.8256642,15.6598039 36.7775887,15.7357843 C35.9190981,17.0465686 35.1184943,18.3137255 34.2678528,19.6443627 C34.2241925,19.7066176 34.1837208,19.7458333 34.0966453,19.7502451 C33.5697774,19.7502451 32.9953245,19.7487745 32.4142491,19.7519608 C32.3097585,19.7519608 32.2614377,19.6742647 32.3161358,19.5727941 C32.6151358,18.9970588 34.2474943,16.6186275 35.3569094,14.5965686 C35.6620415,14.0406863 35.5997396,13.7526961 35.4096453,13.6296569 C35.1729472,13.4772059 34.7010226,13.707598 34.3021925,14.0112745 C33.2131358,14.8345588 32.3004377,16.117402 31.837834,16.6901961 C31.5643434,17.0279412 31.3072868,17.5259804 30.5947396,18.2980392 C29.4730604,19.5151961 27.9878717,20.2142157 26.5554189,19.7301471 C25.7724755,19.4671569 25.2063623,18.8379902 24.9905132,18.0676471 C24.947834,17.9183824 24.8637019,17.8762255 24.7825132,17.9759804 C24.5504755,18.2639706 24.0785509,18.6872549 23.6829094,18.9566176 C23.6392491,18.9860294 23.5332868,19.05 23.4405698,19.0046569 C23.3571736,18.967402 23.0635698,18.5531863 23.0059283,18.4335784 C22.9630038,18.3448529 23.0012679,18.2497549 23.0520415,18.2046569 C23.6174189,17.7080882 23.9267208,17.4279412 24.1727396,17.1181373 C24.3557208,16.8877451 24.4974943,16.6279412 24.6628151,16.2122549 C25.0052302,15.3465686 25.7889094,13.7294118 27.3506264,12.8938725 C27.9471547,12.5747549 28.5515321,12.3460784 29.2206642,12.2681373 C29.5096075,12.2370098 29.7465509,12.2727941 29.8304377,12.4985294 C29.8633057,12.5919118 29.9435132,12.7990196 29.9933057,12.95 C30.0237208,13.0419118 30.0018906,13.1117647 29.8937208,13.1522059 C28.9714566,13.5022059 28.0484566,14.0438725 27.4090038,14.8982843 C26.6861547,15.8681373 26.4899283,17.0372549 26.9750981,17.7080882 C27.3287962,18.1953431 27.9005509,18.2808824 28.4494943,18.1066176 C29.2837019,17.8436275 29.9933057,17.0669118 30.3577962,16.2058824 C30.7558906,15.2642157 30.8204,14.1512255 30.5267962,13.172549 C30.4784755,13.0046569 30.5214,12.8735294 30.6320226,12.7818627 C30.8532679,12.6026961 31.1593811,12.4627451 31.2474377,12.4161765 C31.4375321,12.3085784 31.6634377,12.3865196 31.7708717,12.5436275 C32.0745321,12.9953431 32.2396075,13.6284314 32.2553057,14.285049 C32.2739472,14.4237745 32.3330604,14.4267157 32.4017396,14.3551471 C32.9455321,13.7762255 33.4515509,13.1585784 34.0326264,12.6931373 C34.560966,12.2727941 35.2399094,11.9272059 35.8754377,11.9428922 C36.6949283,11.9615196 37.1047962,12.5171569 37.0763434,13.5068627 C37.0734,13.6328431 37.1653811,13.6235294 37.2244943,13.5379902 C37.4690415,13.1911765 37.6311736,13.0169118 37.9144755,12.7818627 C38.4800981,12.3164216 39.0594566,12.1063725 39.6655509,12.1482843 C40.4102302,12.2029412 41.0052868,12.8845588 40.8838717,13.6563725 C40.8044,14.1544118 40.534834,14.5933824 40.0751736,14.8205882 C39.6873811,15.0105392 39.2323811,14.9776961 38.9147396,14.6946078 C38.6544943,14.454902 38.5703623,14.1154412 38.6387962,13.7715686 C38.6530226,13.7012255 38.5610415,13.6345588 38.4847585,13.7137255 C37.7572491,14.4720588 37.7027962,15.4495098 38.1793811,15.8916667 C38.7042868,16.3772059 39.4911547,16.0517157 40.0643811,15.6784314 C41.1159094,14.9919118 41.9290226,14.0625 42.8728717,13.3453431 C43.4993245,12.8705882 44.2126075,12.4487745 45.0117396,12.3414216 C45.4542302,12.2838235 45.8795509,12.314951 46.3156642,12.492402 C46.8871736,12.7227941 47.2504377,13.2051471 47.2953245,13.6235294 C47.3063623,13.7465686 47.3998151,13.7620098 47.4763434,13.6546569 C47.9281547,12.9482843 50.3596453,9.30759804 50.5590604,8.92622549 C50.6196453,8.80637255 50.6868528,8.79068627 50.8144,8.79068627 L52.554683,8.79068627 C52.6542679,8.79068627 52.701117,8.84828431 52.6557396,8.92622549 M16.0918906,19.7224038 C14.2125321,19.7348039 12.5563811,18.5735294 12.3672679,16.5656863 C12.2613057,15.4509804 12.5760038,14.4595588 13.2068717,13.6421569 C13.766117,12.9142157 14.7131547,12.3085784 15.5140038,12.1607843 C15.7747396,12.1139706 16.1252491,12.1436275 16.2702113,12.3164216 C16.4975887,12.5811275 16.4313623,12.8705882 16.2057019,12.9872549 C15.5932302,13.2987745 14.858117,13.8323529 14.4943623,14.5605392 C14.1983057,15.1553922 14.1391925,15.8730392 14.5902679,16.5563725 C15.3447585,17.6955882 17.4485509,17.7267157 19.4051736,15.9102941 C19.8888717,15.4666667 20.3227774,15.0384804 20.7635509,14.5343137 C21.6249849,13.5487745 21.9117208,13.1911765 23.0567019,11.6034314 C23.070683,11.5865196 23.0743623,11.5615196 23.0682302,11.5490196 C23.0589094,11.5289216 23.0427208,11.5242647 23.0098528,11.5210784 C22.2450604,11.5428922 21.5783811,11.770098 20.9310792,12.2541667 C20.7439283,12.3894608 20.4760792,12.3708333 20.3578528,12.1919118 C20.2276075,11.9897059 20.3210604,11.7264706 20.5361736,11.5769608 C21.5783811,10.8531863 22.7169849,10.722549 23.8798717,10.5262255 C23.8791358,10.5262255 23.9608151,10.5294118 24.0270415,10.4406863 C24.5046075,9.82916667 24.8651736,9.27647059 25.3736453,8.65833333 C25.8862868,8.02965686 26.5490415,7.45367647 27.0545698,7.01936275 C27.7609849,6.41397059 28.2137774,6.20833333 28.6739283,5.95931373 C28.7955887,5.89558824 28.6584755,5.81911765 28.621683,5.81911765 C26.0523434,5.33651961 23.3804755,4.7125 20.8283057,5.65735294 C19.0600604,6.31568627 18.286683,7.71666667 18.6582868,8.65220588 C18.9231925,9.31691176 19.7978717,9.42426471 20.6156453,9.02426471 C21.294834,8.69117647 21.9234943,8.15563725 22.3696642,7.46446078 C22.6188717,7.08161765 23.1437774,7.35857843 22.8602302,8.025 C22.1140792,9.77916667 20.6865321,11.1691176 18.9487019,11.2284314 C17.4696453,11.2767157 16.5154943,10.1884804 16.518683,8.84828431 C16.5233434,6.20220588 19.4721358,4.45857843 22.5698151,4.19877451 C26.3005698,3.89068627 29.8343623,4.88357843 33.5388717,5.33186275 C36.3770415,5.67598039 39.0987019,5.68235294 41.9506075,5.02843137 C42.2873811,4.95539216 42.5240792,5.17009804 42.5022491,5.51102941 C42.4742868,6.00294118 42.0940981,6.47598039 41.1531925,6.98823529 C40.0844943,7.57352941 38.9674755,7.75098039 37.7994377,7.76029412 C34.9767208,7.78357843 32.3472868,6.68455882 29.6256264,6.09313725 C29.6297962,6.2129902 29.659966,6.35465686 29.5603811,6.42941176 C28.053117,7.54093137 26.6908151,8.66936275 25.778117,10.2539216 C25.7467208,10.2897059 25.7638906,10.3254902 25.817117,10.3208333 C26.6091358,10.2789216 27.321683,10.2585784 28.0617019,10.1995098 C28.190966,10.1884804 28.1956264,10.1573529 28.1838528,10.0625 C28.1193434,9.51617647 28.2782868,8.89338235 28.7595321,8.46544118 C29.2510792,8.025 29.867966,7.97352941 30.2753811,8.29117647 C30.7411736,8.65367647 30.6989849,9.30441176 30.445117,9.79166667 C30.1865887,10.2865196 29.7597962,10.5512255 29.3499283,10.6789216 C29.3499283,10.6789216 29.2643245,10.697549 29.276834,10.7754902 C29.2930226,10.9014706 29.8515321,11.2095588 29.899117,11.2921569 C29.9449849,11.3715686 29.921683,11.4931373 29.8368151,11.5865196 C29.776966,11.6531863 29.6849849,11.7171569 29.5665132,11.7142157 C29.4708528,11.7125 29.4122302,11.6796569 29.2900792,11.6127451 C29.0391547,11.477451 28.7261736,11.254902 28.5174377,10.9919118 C28.4458151,10.9029412 28.4097585,10.9014706 28.2324189,10.9107843 C27.4315698,10.957598 26.1830792,11.077451 25.337834,11.1830882 C25.1330226,11.2080882 25.1026075,11.2470588 25.0606642,11.3171569 C23.7123434,13.5379902 22.2730226,15.9335784 20.6926642,17.5370098 C18.9970226,19.2568627 17.588117,19.7098039 16.0918906,19.7224038 M32.4343623,2.30441176 C15.8689283,2.30441176 2.44189057,6.92279412 2.44189057,12.6215686 C2.44189057,18.3198529 15.8689283,22.9382353 32.4343623,22.9382353 C48.9997962,22.9382353 62.4260981,18.3198529 62.4260981,12.6215686 C62.4260981,6.92279412 48.9997962,2.30441176 32.4343623,2.30441176" id="Fill-3" fill="#123574"></path>
                        <path d="M45.8591925,13.662549 C45.2594755,13.3733333 44.3450604,13.9007843 43.517966,14.9186765 C42.8387774,15.7512745 42.4725698,16.5983333 42.4585887,17.4248039 C42.4539283,17.717451 42.5660226,18.079951 42.8262679,18.2140196 C43.4090604,18.5221078 44.1162113,18.0645098 44.6239472,17.6441667 C44.9604755,17.3672059 45.2393623,17.0806863 45.4853811,16.7118137 C45.7549472,16.3132843 45.9511736,16.0485784 46.1660415,15.5895098 C46.1957208,15.5272549 46.1814943,15.5086275 46.1552491,15.4993137 C46.078966,15.4713725 46.002683,15.4152451 45.9933623,15.3559314 C45.9823245,15.3203922 45.9840415,15.2828922 46.0041547,15.2395098 C46.2815698,14.6760294 46.4792679,13.9581373 45.8591925,13.662549" id="Fill-5" fill="#123574"></path>
                        <g id="Group-9" transform="translate(0.000000, 0.235049)">
                            <mask id="mask-2" fill="white">
                                <use xlink:href="#path-1"></use>
                            </mask>
                            <g id="Clip-8"></g>
                            <path d="M32.4343868,23.6806863 C15.2662925,23.6806863 1.34917925,18.6233333 1.34917925,12.3863235 C1.34917925,6.14759804 15.2662925,1.09171569 32.4343868,1.09171569 C49.6010094,1.09171569 63.5181226,6.14759804 63.5181226,12.3863235 C63.5181226,18.6233333 49.6010094,23.6806863 32.4343868,23.6806863 M32.4358585,0.00985294118 C14.5152358,0.00985294118 0.000122641509,5.5404902 0.000122641509,12.3833824 C0.000122641509,19.2228431 14.5152358,24.754951 32.4358585,24.754951 C50.3596698,24.754951 64.8718396,19.2228431 64.8718396,12.3833824 C64.8718396,5.5404902 50.3596698,0.00985294118 32.4358585,0.00985294118" id="Fill-7" fill="#123574" mask="url(#mask-2)"></path>
                        </g>
                    </g>
                </g>
            </g>
        </g>
    </g>
</svg>