<?xml version="1.0" encoding="UTF-8"?>
<svg width="63px" height="24px" viewBox="0 0 63 24" version="1.1" xmlns="http://www.w3.org/2000/svg" xmlns:xlink="http://www.w3.org/1999/xlink">
    <!-- Generator: Sketch 63.1 (92452) - https://sketch.com -->
    <title>LOGO - Ford White</title>
    <desc>Created with Sketch.</desc>
    <defs>
        <polygon id="path-1" points="0.000118867925 0.00964705882 62.8756642 0.00964705882 62.8756642 23.7647059 0.000118867925 23.7647059"></polygon>
    </defs>
    <g id="Symbols" stroke="none" stroke-width="1" fill="none" fill-rule="evenodd">
        <g id="HEADER-Desktop" transform="translate(-26.000000, -16.000000)">
            <g id="LOGO---Ford-White" transform="translate(26.000000, 16.000000)">
                <g id="Group-10">
                    <path d="M28.1631158,9.57927059 C28.412263,9.53009412 28.6847083,9.3268 28.8456555,9.09221176 C28.992814,8.87832941 29.0615196,8.57221176 28.9157875,8.44797647 C28.7850328,8.33762353 28.5736857,8.36891765 28.41678,8.50632941 C28.1041574,8.77997647 28.009063,9.16821176 28.0492404,9.45668235 C28.0701611,9.56727059 28.1131913,9.58821176 28.1631158,9.57927059" id="Fill-1" fill="#FFFFFF"></path>
                    <path d="M51.035563,8.56917647 C50.7821366,9.004 45.8961894,16.3647059 45.5880838,17.1268235 C45.4901366,17.3675294 45.4780121,17.5512941 45.5776234,17.6842353 C45.8341404,18.0263529 46.4020913,17.8277647 46.7598838,17.5811765 C47.8182838,16.8578824 48.5505102,15.9851765 49.36428,15.2202353 C49.4094498,15.1856471 49.4895668,15.172 49.545197,15.2171765 C49.6645404,15.3277647 49.8399894,15.4710588 49.9607592,15.5964706 C50.0166272,15.6564706 49.9952309,15.7162353 49.9650385,15.7534118 C49.1724272,16.7143529 48.2937555,17.62 47.4528838,18.2609412 C46.1453366,19.2637647 44.8423064,19.5176471 44.1959026,18.8767059 C43.9560272,18.636 43.8245592,18.2952941 43.8081555,18.0068235 C43.8003102,17.8498824 43.7190045,17.8425882 43.6434045,17.9143529 C42.8733781,18.6705882 41.5342121,19.5056471 40.3141517,18.9110588 C39.2949781,18.412 39.0596196,17.2105882 39.2514725,16.1957647 C39.2543253,16.1734118 39.2317404,16.0315294 39.10788,16.1167059 C38.8951064,16.2675294 38.6188574,16.4334118 38.2729517,16.5604706 C37.8485932,16.7174118 37.6493706,16.7755294 37.2568687,16.7710588 C36.7616649,16.7682353 36.3161479,16.5604706 36.0023366,16.0745882 C35.8268875,15.8131765 35.7546158,15.4143529 35.7379743,15.1230588 C35.7363102,15.0901176 35.6925668,15.0334118 35.6459706,15.1063529 C34.8138951,16.3647059 34.0379253,17.5811765 33.2134574,18.8585882 C33.1711404,18.9183529 33.131914,18.956 33.0475177,18.9602353 C32.5368611,18.9602353 31.9800838,18.9588235 31.4168875,18.9618824 C31.3156121,18.9618824 31.2687781,18.8872941 31.3217932,18.7898824 C31.6115932,18.2371765 33.1937253,15.9538824 34.2690045,14.0127059 C34.5647479,13.4790588 34.504363,13.2025882 34.3201177,13.0844706 C34.0907026,12.9381176 33.6332989,13.1592941 33.2467404,13.4508235 C32.1911932,14.2411765 31.3065781,15.4727059 30.8582083,16.0225882 C30.5931328,16.3468235 30.3439857,16.8249412 29.653363,17.5661176 C28.566197,18.7345882 27.1267064,19.4056471 25.7383291,18.9409412 C24.9794762,18.6884706 24.4307819,18.0844706 24.2215743,17.3449412 C24.1802083,17.2016471 24.0986649,17.1611765 24.0199743,17.2569412 C23.7950762,17.5334118 23.3376725,17.9397647 22.9542045,18.1983529 C22.9118875,18.2265882 22.8091857,18.288 22.7193215,18.2444706 C22.6384913,18.2087059 22.3539215,17.8110588 22.2980536,17.6962353 C22.2564498,17.6110588 22.2935366,17.5197647 22.3427479,17.4764706 C22.8907291,16.9997647 23.190514,16.7308235 23.428963,16.4334118 C23.606314,16.2122353 23.7437253,15.9628235 23.9039592,15.5637647 C24.2358385,14.7327059 24.9954045,13.1802353 26.5090687,12.3781176 C27.0872423,12.0717647 27.6730234,11.8522353 28.3215668,11.7774118 C28.6016196,11.7475294 28.8312725,11.7818824 28.9125781,11.9985882 C28.9444347,12.0882353 29.0221743,12.2870588 29.0704347,12.432 C29.099914,12.5202353 29.0787555,12.5872941 28.973914,12.6261176 C28.0800272,12.9621176 27.1854272,13.4821176 26.5656498,14.3023529 C25.8650423,15.2334118 25.6748536,16.3557647 26.1450951,16.9997647 C26.4879102,17.4675294 27.0420725,17.5496471 27.5741253,17.3823529 C28.3826649,17.1298824 29.0704347,16.3842353 29.4237102,15.5576471 C29.8095555,14.6536471 29.87208,13.5851765 29.5875102,12.6456471 C29.5406762,12.4844706 29.58228,12.3585882 29.6894989,12.2705882 C29.9039366,12.0985882 30.2006309,11.9642353 30.2859781,11.9195294 C30.4702234,11.8162353 30.6891781,11.8910588 30.7933064,12.0418824 C31.0876234,12.4755294 31.2476196,13.0832941 31.2628347,13.7136471 C31.2809026,13.8468235 31.338197,13.8496471 31.404763,13.7809412 C31.9318234,13.2251765 32.4222725,12.6322353 32.9854687,12.1854118 C33.4975517,11.7818824 34.1556045,11.4501176 34.7715781,11.4651765 C35.5658536,11.4830588 35.9631102,12.0164706 35.9355328,12.9665882 C35.93268,13.0875294 36.0218309,13.0785882 36.0791253,12.9964706 C36.3161479,12.6635294 36.4732913,12.4962353 36.7478762,12.2705882 C37.2960951,11.8237647 37.8576272,11.6221176 38.4450725,11.6623529 C39.1668385,11.7148235 39.7435857,12.3691765 39.6259064,13.1101176 C39.54888,13.5882353 39.2876083,14.0096471 38.8420913,14.2277647 C38.4662309,14.4101176 38.0252309,14.3785882 37.717363,14.1068235 C37.4651253,13.8767059 37.3835819,13.5508235 37.4499102,13.2207059 C37.4636989,13.1531765 37.3745479,13.0891765 37.3006121,13.1651765 C36.5954875,13.8931765 36.5427102,14.8315294 37.0046309,15.256 C37.5133857,15.7221176 38.2760423,15.4096471 38.8316309,15.0512941 C39.8508045,14.3922353 40.6388989,13.5 41.5537064,12.8115294 C42.1608838,12.3557647 42.8522196,11.9508235 43.626763,11.8477647 C44.0556385,11.7924706 44.4678725,11.8223529 44.8905668,11.9927059 C45.4444913,12.2138824 45.7965781,12.6769412 45.8400838,13.0785882 C45.8507819,13.1967059 45.9413592,13.2115294 46.0155328,13.1084706 C46.4534423,12.4303529 48.8101177,8.93529412 49.003397,8.56917647 C49.0621177,8.45411765 49.1272574,8.43905882 49.25088,8.43905882 L50.9376158,8.43905882 C51.0341366,8.43905882 51.0795442,8.49435294 51.035563,8.56917647 M15.5967555,18.9335077 C13.7752234,18.9454118 12.1700309,17.8305882 11.9867366,15.9030588 C11.8840347,14.8329412 12.1890498,13.8811765 12.8005064,13.0964706 C13.3425442,12.3976471 14.2604423,11.8162353 15.0366498,11.6743529 C15.289363,11.6294118 15.6290875,11.6578824 15.7695894,11.8237647 C15.9899706,12.0778824 15.9257819,12.3557647 15.7070649,12.4677647 C15.1134385,12.7668235 14.4009442,13.2790588 14.0483819,13.9781176 C13.7614347,14.5491765 13.7041404,15.2381176 14.1413366,15.8941176 C14.8726121,16.9877647 16.9116725,17.0176471 18.8080913,15.2738824 C19.2769064,14.848 19.6974611,14.4369412 20.1246725,13.9529412 C20.9596008,13.0068235 21.237514,12.6635294 22.3472649,11.1392941 C22.3608158,11.1230588 22.3643819,11.0990588 22.3584385,11.0870588 C22.3494045,11.0677647 22.333714,11.0632941 22.3018574,11.0602353 C21.560597,11.0811765 20.9144309,11.2992941 20.287046,11.764 C20.1056536,11.8938824 19.846046,11.876 19.7314574,11.7042353 C19.6052196,11.5101176 19.695797,11.2574118 19.9042913,11.1138824 C20.9144309,10.4190588 22.0180008,10.2936471 23.1451064,10.1051765 C23.1443932,10.1051765 23.2235592,10.1082353 23.2877479,10.0230588 C23.7506196,9.436 24.1000913,8.90541176 24.5929177,8.312 C25.0897857,7.70847059 25.7321479,7.15552941 26.2221215,6.73858824 C26.9068008,6.15741176 27.3456611,5.96 27.7916536,5.72094118 C27.9095706,5.65976471 27.7766762,5.58635294 27.7410158,5.58635294 C25.2507328,5.12305882 22.6610762,4.524 20.1874347,5.43105882 C18.473597,6.06305882 17.7240158,7.408 18.0841857,8.30611765 C18.3409404,8.94423529 19.1887064,9.04729412 19.9813177,8.66329412 C20.6396083,8.34352941 21.2489253,7.82941176 21.6813668,7.16588235 C21.9229064,6.79835294 22.4316611,7.06423529 22.1568385,7.704 C21.433646,9.388 20.0500234,10.7223529 18.3656649,10.7792941 C16.9321177,10.8256471 16.0073253,9.78094118 16.0104158,8.49435294 C16.0149328,5.95411765 18.8729932,4.28023529 21.8753592,4.03082353 C25.4913215,3.73505882 28.9163819,4.68823529 32.5069064,5.11858824 C35.2577479,5.44894118 37.8956649,5.45505882 40.6598196,4.82729412 C40.9862309,4.75717647 41.215646,4.96329412 41.1944875,5.29058824 C41.1673857,5.76282353 40.7988951,6.21694118 39.8869404,6.70870588 C38.8511253,7.27058824 37.7684762,7.44094118 36.6363781,7.44988235 C33.900514,7.47223529 31.3519857,6.41717647 28.7140687,5.84941176 C28.7181102,5.96447059 28.7473517,6.10047059 28.6508309,6.17223529 C27.1899442,7.23929412 25.8695592,8.32258824 24.9849442,9.84376471 C24.954514,9.87811765 24.9711555,9.91247059 25.0227442,9.908 C25.7903932,9.86776471 26.4810158,9.84823529 27.1982649,9.79152941 C27.3235517,9.78094118 27.3280687,9.75105882 27.3166574,9.66 C27.2541328,9.13552941 27.4081857,8.53764706 27.8746234,8.12682353 C28.351046,7.704 28.9489517,7.65458824 29.3438309,7.95952941 C29.7952913,8.30752941 29.7544008,8.93223529 29.5083442,9.4 C29.2577706,9.87505882 28.8441102,10.1291765 28.4468536,10.2517647 C28.4468536,10.2517647 28.3638838,10.2696471 28.3760083,10.3444706 C28.3916989,10.4654118 28.9330234,10.7611765 28.9791442,10.8404706 C29.0236008,10.9167059 29.0010158,11.0334118 28.9187592,11.1230588 C28.8607517,11.1870588 28.7716008,11.2484706 28.6567743,11.2456471 C28.5640574,11.244 28.5072385,11.2124706 28.388846,11.1482353 C28.1456423,11.0183529 27.8422913,10.8047059 27.6399781,10.5522353 C27.5705592,10.4668235 27.5356121,10.4654118 27.3637291,10.4743529 C26.5875215,10.5192941 25.377446,10.6343529 24.5582083,10.7357647 C24.3596989,10.7597647 24.3302196,10.7971765 24.2895668,10.8644706 C22.9827328,12.9964706 21.5876989,15.2962353 20.0559668,16.8355294 C18.4124989,18.4865882 17.0469442,18.9214118 15.5967555,18.9335077 M31.4363819,2.21223529 C15.3806536,2.21223529 2.36675547,6.64588235 2.36675547,12.1167059 C2.36675547,17.5870588 15.3806536,22.0207059 31.4363819,22.0207059 C47.4921102,22.0207059 60.5052951,17.5870588 60.5052951,12.1167059 C60.5052951,6.64588235 47.4921102,2.21223529 31.4363819,2.21223529" id="Fill-3" fill="#FFFFFF"></path>
                    <path d="M44.4481404,13.1160471 C43.8668762,12.8384 42.980597,13.3447529 42.1789517,14.3219294 C41.5206611,15.1212235 41.1657215,15.9344 41.1521706,16.7278118 C41.1476536,17.0087529 41.2562989,17.3567529 41.5085366,17.4854588 C42.073397,17.7812235 42.7587894,17.3419294 43.2509026,16.9384 C43.5770762,16.6725176 43.8473819,16.3974588 44.0858309,16.0433412 C44.3471026,15.6607529 44.5372913,15.4066353 44.7455479,14.9659294 C44.774314,14.9061647 44.7605253,14.8882824 44.7350875,14.8793412 C44.6611517,14.8525176 44.5872158,14.7986353 44.5781819,14.7416941 C44.5674838,14.7075765 44.5691479,14.6715765 44.5886423,14.6299294 C44.8575215,14.0889882 45.0491366,13.3998118 44.4481404,13.1160471" id="Fill-5" fill="#FFFFFF"></path>
                    <g id="Group-9" transform="translate(0.000000, 0.225647)">
                        <mask id="mask-2" fill="white">
                            <use xlink:href="#path-1"></use>
                        </mask>
                        <g id="Clip-8"></g>
                        <path d="M31.4364057,22.7334588 C14.7965604,22.7334588 1.30766604,17.8784 1.30766604,11.8908706 C1.30766604,5.90169412 14.7965604,1.04804706 31.4364057,1.04804706 C48.0748245,1.04804706 61.5637189,5.90169412 61.5637189,11.8908706 C61.5637189,17.8784 48.0748245,22.7334588 31.4364057,22.7334588 M31.4378321,0.00945882353 C14.0686132,0.00945882353 0.000118867925,5.31887059 0.000118867925,11.8880471 C0.000118867925,18.4539294 14.0686132,23.7647529 31.4378321,23.7647529 C48.8101415,23.7647529 62.875783,18.4539294 62.875783,11.8880471 C62.875783,5.31887059 48.8101415,0.00945882353 31.4378321,0.00945882353" id="Fill-7" fill="#FFFFFF" mask="url(#mask-2)"></path>
                    </g>
                </g>
            </g>
        </g>
    </g>
</svg>